<svg id="レイヤー_1" data-name="レイヤー 1" xmlns="http://www.w3.org/2000/svg" xmlns:xlink="http://www.w3.org/1999/xlink" viewBox="0 0 207.6 61.51"><defs><style>.cls-1{fill:#9c9b9b;}.cls-2,.cls-6{fill:#fff;}.cls-3{fill:#50c1f1;}.cls-4{fill:url(#linear-gradient);}.Graphic-Style-2{fill:url(#linear-gradient-2);}.cls-5{fill:url(#linear-gradient-3);}.cls-6{stroke:#fff;stroke-miterlimit:10;stroke-width:0.31px;}</style><linearGradient id="linear-gradient" x1="423.55" y1="280.46" x2="386.37" y2="280.46" gradientUnits="userSpaceOnUse"><stop offset="0" stop-color="#ffda00"/><stop offset="0.01" stop-color="#ffd900"/><stop offset="0.44" stop-color="#fbb10f"/><stop offset="0.79" stop-color="#f89918"/><stop offset="1" stop-color="#f7901b"/></linearGradient><linearGradient id="linear-gradient-2" x1="413.9" y1="283.98" x2="378.93" y2="318.95" gradientUnits="userSpaceOnUse"><stop offset="0" stop-color="#ec3b3e"/><stop offset="1" stop-color="#be1661"/></linearGradient><linearGradient id="linear-gradient-3" x1="378.78" y1="241.81" x2="407.33" y2="270.36" gradientUnits="userSpaceOnUse"><stop offset="0" stop-color="#229364"/><stop offset="0.43" stop-color="#48a760"/><stop offset="0.78" stop-color="#60b45e"/><stop offset="1" stop-color="#69b95d"/></linearGradient></defs><title>googleplay</title><rect width="207.6" height="61.51" rx="7.69" ry="7.69"/><path class="cls-1" d="M575.65,250.93a6.47,6.47,0,0,1,6.46,6.46v46.13a6.47,6.47,0,0,1-6.46,6.46H383.43a6.47,6.47,0,0,1-6.46-6.46V257.39a6.47,6.47,0,0,1,6.46-6.46H575.65m0-1.23H383.43a7.71,7.71,0,0,0-7.69,7.69v46.13a7.71,7.71,0,0,0,7.69,7.69H575.65a7.71,7.71,0,0,0,7.69-7.69V257.39a7.71,7.71,0,0,0-7.69-7.69Z" transform="translate(-375.74 -249.7)"/><path class="cls-2" d="M475.27,269.37a5.72,5.72,0,1,0,5.74,5.72A5.63,5.63,0,0,0,475.27,269.37Zm0,9.18a3.47,3.47,0,1,1,3.23-3.46A3.31,3.31,0,0,1,475.27,278.55Zm-12.52-9.18a5.72,5.72,0,1,0,5.74,5.72A5.63,5.63,0,0,0,462.76,269.37Zm0,9.18a3.47,3.47,0,1,1,3.23-3.46A3.31,3.31,0,0,1,462.76,278.55Zm-14.89-7.43v2.43h5.8a5.06,5.06,0,0,1-1.32,3.05,5.94,5.94,0,0,1-4.48,1.78,6.45,6.45,0,0,1,0-12.91,6.19,6.19,0,0,1,4.37,1.73l1.71-1.71a8.46,8.46,0,0,0-6.08-2.45,8.88,8.88,0,1,0,0,17.76,8.12,8.12,0,0,0,6.19-2.49,8,8,0,0,0,2.1-5.67,7.9,7.9,0,0,0-.13-1.52Zm60.9,1.88a5.31,5.31,0,0,0-4.89-3.64,5.43,5.43,0,0,0-5.39,5.72,5.59,5.59,0,0,0,5.67,5.72,5.69,5.69,0,0,0,4.76-2.53L507,277a3.26,3.26,0,0,1-2.82,1.58,2.91,2.91,0,0,1-2.77-1.73l7.64-3.16Zm-7.8,1.91a3.14,3.14,0,0,1,3-3.33,2.21,2.21,0,0,1,2.12,1.21Zm-6.21,5.54h2.51v-16.8h-2.51Zm-4.11-9.81h-.09a4,4,0,0,0-3-1.28,5.72,5.72,0,0,0,0,11.43,3.9,3.9,0,0,0,3-1.3h.09v.82c0,2.19-1.17,3.36-3.05,3.36a3.16,3.16,0,0,1-2.88-2l-2.19.91a5.45,5.45,0,0,0,5.07,3.38c2.95,0,5.44-1.73,5.44-6V269.72h-2.38Zm-2.88,7.9a3.48,3.48,0,0,1,0-6.93,3.49,3.49,0,0,1,0,6.93Zm32.77-14.9h-6v16.8H517v-6.37h3.5a5.23,5.23,0,1,0,0-10.44Zm.06,8.1H517V266h3.57a2.88,2.88,0,1,1,0,5.76Zm15.5-2.41a4.71,4.71,0,0,0-4.47,2.57l2.23.93a2.38,2.38,0,0,1,2.29-1.23,2.41,2.41,0,0,1,2.64,2.16v.17a5.55,5.55,0,0,0-2.62-.65c-2.4,0-4.84,1.32-4.84,3.78,0,2.25,2,3.7,4.17,3.7a3.54,3.54,0,0,0,3.2-1.64h.09v1.3h2.42V274C541.2,271,539,269.34,536.1,269.34Zm-.3,9.21c-.82,0-2-.41-2-1.43,0-1.3,1.43-1.79,2.66-1.79a4.47,4.47,0,0,1,2.29.56A3,3,0,0,1,535.79,278.55ZM550,269.71,547.14,277h-.09l-3-7.29h-2.7l4.47,10.18-2.55,5.66h2.62l6.9-15.85Zm-22.59,10.75h2.51v-16.8h-2.51Z" transform="translate(-375.74 -249.7)"/><path class="cls-3" d="M391.79,261.31a3.07,3.07,0,0,0-.71,2.16v34a3.08,3.08,0,0,0,.71,2.16l.11.11,19-19v-.45l-19-19Z" transform="translate(-375.74 -249.7)"/><path class="cls-4" d="M417.28,287l-6.34-6.35v-.45l6.35-6.35.14.08,7.52,4.27c2.15,1.22,2.15,3.22,0,4.44l-7.52,4.27Z" transform="translate(-375.74 -249.7)"/><path class="Graphic-Style-2" d="M417.43,286.95l-6.49-6.49-19.15,19.15c.71.75,1.88.84,3.19.09l22.45-12.75" transform="translate(-375.74 -249.7)"/><path class="cls-5" d="M417.43,274,395,261.21c-1.32-.75-2.48-.66-3.19.09l19.15,19.15Z" transform="translate(-375.74 -249.7)"/><path class="cls-6" d="M440,291.26c.9-.08,3.49-.33,6-.55,1.49-.12,2.78-.19,3.7-.23v1.11a11.3,11.3,0,0,0-2.69.22,4.79,4.79,0,0,0-3.13,4.33c0,2.67,2.49,3.52,4.72,3.6l-.4,1.16c-2.53-.11-5.43-1.47-5.43-4.53a5.54,5.54,0,0,1,2.55-4.62c-1.2.14-4.94.5-6.42.8l-.12-1.22C439.33,291.32,439.76,291.29,440,291.26Zm8.9,3.92-.71.33a12.9,12.9,0,0,0-1.14-2l.71-.3A16.48,16.48,0,0,1,448.92,295.18Zm1.58-.59-.72.33a12.26,12.26,0,0,0-1.18-1.92l.69-.32A20.76,20.76,0,0,1,450.5,294.59Z" transform="translate(-375.74 -249.7)"/><path class="cls-6" d="M464.25,297h-5.68v3.07c0,.73-.22,1-.73,1.2a10.76,10.76,0,0,1-2.85.18,5.13,5.13,0,0,0-.44-1c1.16,0,2.24,0,2.56,0s.43-.1.43-.39V297h-5.69v-1h5.69v-2.24h-4.76v-1h4.76v-2.13c-1.52.17-3.09.26-4.51.33a4.66,4.66,0,0,0-.26-.91,46,46,0,0,0,9.36-1.16l.78.82a26,26,0,0,1-4.32.82v2.24h4.9v1h-4.9V296h5.68Z" transform="translate(-375.74 -249.7)"/><path class="cls-6" d="M468.47,290.06c-.08.24-.21.68-.26.93a31.56,31.56,0,0,0-.66,5.25,14.29,14.29,0,0,0,.11,1.88c.24-.62.54-1.43.76-2l.6.44a29.88,29.88,0,0,0-1,3.07,3.43,3.43,0,0,0-.07.61l0,.48-1,.07a17.15,17.15,0,0,1-.5-4.4,38.13,38.13,0,0,1,.61-5.5,8.08,8.08,0,0,0,.1-1Zm3.13,6.65a5.09,5.09,0,0,0-.18,1.26c0,.62.42,1.23,2.3,1.23a14.9,14.9,0,0,0,3.39-.36V300a18.16,18.16,0,0,1-3.42.28c-2.3,0-3.32-.76-3.32-2a7.93,7.93,0,0,1,.22-1.62Zm-.54-5.59a24,24,0,0,0,5.64,0v1.14a34.78,34.78,0,0,1-5.62,0Z" transform="translate(-375.74 -249.7)"/><path class="cls-6" d="M485.95,289.7c0,2.45.32,7.67,5.74,10.89a4.9,4.9,0,0,0-.83.86,11.94,11.94,0,0,1-5.5-7.71c-1,3.59-2.77,6.11-5.52,7.72a6.71,6.71,0,0,0-.93-.82c3.06-1.59,4.76-4.38,5.61-8.25l.61.1c-.1-.64-.15-1.25-.18-1.77h-3.41v-1Z" transform="translate(-375.74 -249.7)"/><path class="cls-6" d="M505.18,299.34a3.51,3.51,0,0,1-2.52,1.15c-.9,0-1.52-.61-1.52-1.75,0-1.52.51-3.78.51-5.11a1,1,0,0,0-1.09-1.12c-1.11,0-2.77,1.29-4,2.64,0,.58,0,1.12,0,1.61,0,1.25,0,2.08.05,3.31,0,.24,0,.58.07.83h-1.2c0-.19,0-.59,0-.82,0-1.32,0-2,0-3.52,0-.14,0-.32,0-.53-.67,1-1.56,2.32-2.23,3.24l-.69-1c.76-1,2.34-3.09,3-4.17,0-.44.06-.89.08-1.32-.62.07-1.81.24-2.67.35l-.11-1.15a6.24,6.24,0,0,0,.9,0c.44,0,1.25-.11,2-.22,0-.65.07-1.14.07-1.29a5.1,5.1,0,0,0-.06-1l1.32,0c-.07.33-.18,1.11-.28,2.06l.07,0,.4.49c-.17.25-.4.62-.61,1,0,.25,0,.51-.07.77,1.06-1,2.82-2.3,4.19-2.3a1.72,1.72,0,0,1,1.94,1.84c0,1.37-.51,3.74-.51,5.12,0,.47.22.83.71.83a3,3,0,0,0,2.06-1.14Z" transform="translate(-375.74 -249.7)"/><path class="cls-6" d="M512.9,293.48c0,.9.07,2.23.14,3.42a10.87,10.87,0,0,1,4.26,2.34l-.66,1a9.59,9.59,0,0,0-3.56-2.26c0,.36,0,.66,0,.91,0,1.12-.69,2.09-2.52,2.09s-3.28-.61-3.28-2.17c0-1.23,1.08-2.26,3.45-2.26a8.18,8.18,0,0,1,1.16.08c-.06-1.11-.11-2.37-.11-3.18s0-1.92,0-2.5a10.27,10.27,0,0,0-.11-1.36H513a11.85,11.85,0,0,0-.11,1.36c0,.37,0,.86,0,1.4,1.09,0,2.82-.1,4.06-.26l0,1.05c-1.22.11-3,.19-4.1.22ZM512,297.7a6.19,6.19,0,0,0-1.34-.14c-1.41,0-2.21.48-2.21,1.23s.76,1.18,2.08,1.18c1,0,1.49-.47,1.49-1.41C512,298.34,512,298,512,297.7Z" transform="translate(-375.74 -249.7)"/><path class="cls-6" d="M525.54,293.84a12.76,12.76,0,0,0-3.74.71c-.42.11-.82.28-1.15.4l-.35-1.27c.37,0,.85-.12,1.25-.21a18.21,18.21,0,0,1,4.1-.66c2,0,3.4,1.09,3.4,3,0,3-2.64,4.66-6.2,5.19L522.2,300c3.32-.42,5.68-1.72,5.68-4.18A2.07,2.07,0,0,0,525.54,293.84Zm2.42-3.57-.17,1.07c-1.52-.1-4.29-.37-5.84-.65l.18-1.05A36.6,36.6,0,0,0,528,290.27Z" transform="translate(-375.74 -249.7)"/></svg>