<svg id="レイヤー_1" data-name="レイヤー 1" xmlns="http://www.w3.org/2000/svg" viewBox="0 0 206.86 61.29"><defs><style>.cls-1{fill:#a6a6a6;}.cls-2{fill:#fff;}</style></defs><title>app</title><path class="cls-1" d="M575.5,310.83H383.25a7.26,7.26,0,0,1-7.25-7.25v-46.8a7.25,7.25,0,0,1,7.25-7.24H575.5a7.35,7.35,0,0,1,7.36,7.24v46.8a7.36,7.36,0,0,1-7.36,7.25Z" transform="translate(-376 -249.54)"/><path d="M581.38,303.58a5.87,5.87,0,0,1-5.87,5.87H383.25a5.88,5.88,0,0,1-5.88-5.87v-46.8a5.88,5.88,0,0,1,5.88-5.88H575.5a5.88,5.88,0,0,1,5.87,5.88v46.8Z" transform="translate(-376 -249.54)"/><path class="cls-2" d="M422.16,279.85a8.88,8.88,0,0,1,4.23-7.45,9.1,9.1,0,0,0-7.16-3.87c-3-.32-5.94,1.8-7.47,1.8s-3.93-1.77-6.48-1.72a9.54,9.54,0,0,0-8,4.9c-3.47,6-.88,14.84,2.44,19.7,1.66,2.38,3.61,5,6.15,4.94s3.42-1.59,6.42-1.59,3.85,1.59,6.45,1.53,4.35-2.39,6-4.79a19.64,19.64,0,0,0,2.73-5.55A8.59,8.59,0,0,1,422.16,279.85Z" transform="translate(-376 -249.54)"/><path class="cls-2" d="M417.26,265.33a8.74,8.74,0,0,0,2-6.27,8.91,8.91,0,0,0-5.76,3,8.32,8.32,0,0,0-2.05,6A7.36,7.36,0,0,0,417.26,265.33Z" transform="translate(-376 -249.54)"/><path class="cls-2" d="M458.78,275.86h-3.07L454,270.57h-5.85l-1.6,5.29h-3l5.8-18h3.58Zm-5.27-7.51L452,263.64q-.24-.72-.91-3.4H451q-.27,1.15-.86,3.4l-1.5,4.71Z" transform="translate(-376 -249.54)"/><path class="cls-2" d="M473.67,269.2a7.35,7.35,0,0,1-1.8,5.24,5.27,5.27,0,0,1-4,1.71,4,4,0,0,1-3.71-1.84v6.82h-2.89v-14q0-2.08-.11-4.27h2.54l.16,2.06h.05a5.14,5.14,0,0,1,8.22-.51A7.17,7.17,0,0,1,473.67,269.2Zm-2.94.11a5.37,5.37,0,0,0-.86-3.13,3,3,0,0,0-2.51-1.28,3,3,0,0,0-1.94.71,3.28,3.28,0,0,0-1.14,1.86,3.7,3.7,0,0,0-.13.88v2.17a3.47,3.47,0,0,0,.87,2.39,2.88,2.88,0,0,0,2.26,1,3,3,0,0,0,2.54-1.26A5.53,5.53,0,0,0,470.73,269.31Z" transform="translate(-376 -249.54)"/><path class="cls-2" d="M488.62,269.2a7.35,7.35,0,0,1-1.8,5.24,5.27,5.27,0,0,1-4,1.71,4,4,0,0,1-3.71-1.84v6.82h-2.89v-14q0-2.08-.11-4.27h2.54l.16,2.06h.05a5.14,5.14,0,0,1,8.22-.51A7.16,7.16,0,0,1,488.62,269.2Zm-2.94.11a5.37,5.37,0,0,0-.86-3.13,3,3,0,0,0-2.52-1.28,3,3,0,0,0-1.94.71,3.27,3.27,0,0,0-1.14,1.86,3.71,3.71,0,0,0-.13.88v2.17a3.46,3.46,0,0,0,.87,2.39,2.88,2.88,0,0,0,2.26,1,3,3,0,0,0,2.54-1.26A5.52,5.52,0,0,0,485.68,269.31Z" transform="translate(-376 -249.54)"/><path class="cls-2" d="M508.94,270.81a4.81,4.81,0,0,1-1.6,3.74,7.09,7.09,0,0,1-4.91,1.58,8.57,8.57,0,0,1-4.67-1.12l.67-2.41a8,8,0,0,0,4.17,1.12,3.93,3.93,0,0,0,2.54-.74,2.4,2.4,0,0,0,.91-2,2.51,2.51,0,0,0-.75-1.84,7,7,0,0,0-2.49-1.39q-4.73-1.77-4.73-5.16a4.55,4.55,0,0,1,1.67-3.64,6.61,6.61,0,0,1,4.43-1.42,8.76,8.76,0,0,1,4.09.86l-.73,2.35a7.16,7.16,0,0,0-3.46-.83,3.51,3.51,0,0,0-2.39.75,2.14,2.14,0,0,0-.72,1.63,2.2,2.2,0,0,0,.83,1.77,9.3,9.3,0,0,0,2.62,1.39,8.83,8.83,0,0,1,3.42,2.19A4.58,4.58,0,0,1,508.94,270.81Z" transform="translate(-376 -249.54)"/><path class="cls-2" d="M518.51,265h-3.18v6.31q0,2.41,1.69,2.41a5.19,5.19,0,0,0,1.28-.13l.08,2.19a6.54,6.54,0,0,1-2.25.32,3.46,3.46,0,0,1-2.67-1,5.11,5.11,0,0,1-1-3.5V265h-1.9v-2.17h1.9v-2.38l2.83-.86v3.23h3.18V265Z" transform="translate(-376 -249.54)"/><path class="cls-2" d="M532.84,269.26a7.14,7.14,0,0,1-1.71,4.92,6.1,6.1,0,0,1-4.76,2,5.82,5.82,0,0,1-4.56-1.9,6.91,6.91,0,0,1-1.7-4.79,7.07,7.07,0,0,1,1.75-4.95,6.07,6.07,0,0,1,4.72-1.92,5.94,5.94,0,0,1,4.6,1.9A6.87,6.87,0,0,1,532.84,269.26Zm-3,.07a5.8,5.8,0,0,0-.78-3.07,2.86,2.86,0,0,0-2.59-1.55,2.9,2.9,0,0,0-2.65,1.55,5.91,5.91,0,0,0-.78,3.12,5.8,5.8,0,0,0,.78,3.07,2.92,2.92,0,0,0,2.62,1.55,2.88,2.88,0,0,0,2.59-1.57A5.77,5.77,0,0,0,529.84,269.32Z" transform="translate(-376 -249.54)"/><path class="cls-2" d="M542.23,265.41a4.94,4.94,0,0,0-.91-.08,2.73,2.73,0,0,0-2.35,1.15,4.34,4.34,0,0,0-.72,2.57v6.82h-2.89V267q0-2.25-.08-4.09h2.52l.11,2.49H538a4.42,4.42,0,0,1,1.44-2.06,3.49,3.49,0,0,1,2.09-.7,4.44,4.44,0,0,1,.72.05v2.75Z" transform="translate(-376 -249.54)"/><path class="cls-2" d="M555.14,268.75a6.88,6.88,0,0,1-.11,1.31h-8.66a3.78,3.78,0,0,0,1.25,2.94,4.3,4.3,0,0,0,2.84.91,9.54,9.54,0,0,0,3.5-.61l.46,2a10.87,10.87,0,0,1-4.36.8,6.31,6.31,0,0,1-4.75-1.78,6.56,6.56,0,0,1-1.73-4.77,7.47,7.47,0,0,1,1.6-4.89,5.54,5.54,0,0,1,4.55-2.09,4.83,4.83,0,0,1,4.25,2.09A7,7,0,0,1,555.14,268.75Zm-2.75-.75a3.92,3.92,0,0,0-.56-2.22,2.52,2.52,0,0,0-2.3-1.2,2.75,2.75,0,0,0-2.3,1.18,4.33,4.33,0,0,0-.86,2.25Z" transform="translate(-376 -249.54)"/><path class="cls-2" d="M447,290.8a34.9,34.9,0,0,0,.72-4.14l1.54.2c-.18,1.27-.43,2.57-.73,3.84.47,0,.88-.05,1.22-.05,2.46,0,3.57,1.29,3.57,4a14.06,14.06,0,0,1-1.15,6.28,2.34,2.34,0,0,1-2.31,1.2,12.38,12.38,0,0,1-2.6-.3l.11-1.45a7.57,7.57,0,0,0,2.19.34,1.25,1.25,0,0,0,1.29-.59c.57-.84,1-3,1-5.42,0-2-.59-2.62-2.13-2.62-.43,0-.93,0-1.47.05a31.35,31.35,0,0,1-3.93,9.23l-1.36-.73a25.94,25.94,0,0,0,3.75-8.38c-1.24.14-2.53.34-3.66.55l-.27-1.44C444,291.14,445.53,290.94,447,290.8ZM458.73,297l-1.54.38a12.44,12.44,0,0,0-3.28-7l1.25-.8A14,14,0,0,1,458.73,297Z" transform="translate(-376 -249.54)"/><path class="cls-2" d="M463,295.87a11.07,11.07,0,0,1,6-2.12c2.78,0,4.47,1.34,4.47,3.66,0,2.87-2.35,4.68-7.93,4.68-.23,0-.56,0-.84,0l-.32-1.45,1.31,0c4.49,0,6.21-1.27,6.21-3.21,0-1.58-1-2.4-3.21-2.4-1.85,0-4,1-6,2.78l-1.24-.54c0-3.87.41-5.74,1.78-7.69l1.42.48A8.92,8.92,0,0,0,463,295.87Zm-.16-7.82.4-1.43a53.31,53.31,0,0,1,8,1.86l-.41,1.42A45.08,45.08,0,0,0,462.81,288.06Z" transform="translate(-376 -249.54)"/><path class="cls-2" d="M480.6,292.74a40.29,40.29,0,0,1,4.22,2.76,14.74,14.74,0,0,0,2.2-5.24h-5.79a22.31,22.31,0,0,1-4.68,5.44l-1.2-1a20.13,20.13,0,0,0,6-8l1.5.52c-.22.54-.48,1.09-.79,1.69h5.78l1.15.63c-1.25,5.78-4.64,10.62-9.88,12.73L478,300.88a14,14,0,0,0,5.86-4.12,30.16,30.16,0,0,0-4.23-2.85Zm7.08-6.69a13.74,13.74,0,0,1,1.88,2.4l-.81.57a12.07,12.07,0,0,0-1.85-2.39Zm2.33-.52a12.55,12.55,0,0,1,1.86,2.44l-.84.56a11,11,0,0,0-1.81-2.44Z" transform="translate(-376 -249.54)"/><path class="cls-2" d="M499.25,289.78v-3.1h1.63v3.1h4.69l1.37.55c-.45,5.47-2.6,9.72-8.34,11.8l-1-1.4c5.29-1.79,7.19-5.33,7.46-9.47H495.5v4.12h-1.61v-5.61Z" transform="translate(-376 -249.54)"/><path class="cls-2" d="M515.83,291.45l-1.06,1.31a29.31,29.31,0,0,0-4.63-3.23l1-1.29A41.28,41.28,0,0,1,515.83,291.45Zm6.91,0,1,1.22A23.47,23.47,0,0,1,511.38,302l-.81-1.54A21.37,21.37,0,0,0,522.73,291.48Z" transform="translate(-376 -249.54)"/><path class="cls-2" d="M539.84,289v12H527V289Zm-1.65,10.49v-9h-9.54v9Z" transform="translate(-376 -249.54)"/><path class="cls-2" d="M558.12,293.6v1.65h-14.6V293.6Z" transform="translate(-376 -249.54)"/><path class="cls-2" d="M572.57,296.16l-1,1.33a48.8,48.8,0,0,0-7.12-4.11v8.72h-1.65V286.67h1.65v5A63.94,63.94,0,0,1,572.57,296.16Zm-4.18-7.59a13.27,13.27,0,0,1,1.77,2.39l-.79.5a11.71,11.71,0,0,0-1.72-2.39Zm1.88-1.13a14.94,14.94,0,0,1,1.79,2.37l-.79.5a12.37,12.37,0,0,0-1.74-2.35Z" transform="translate(-376 -249.54)"/></svg>