<?xml version="1.0" encoding="utf-8"?>
<!-- Generator: Adobe Illustrator 22.0.0, SVG Export Plug-In . SVG Version: 6.00 Build 0)  -->
<svg version="1.1" id="レイヤー_1" xmlns="http://www.w3.org/2000/svg" xmlns:xlink="http://www.w3.org/1999/xlink" x="0px"
	 y="0px" viewBox="0 0 218.4 55.8" style="enable-background:new 0 0 218.4 55.8;" xml:space="preserve">
<g>
	<g>
		<path d="M28.4,24.1c0-2.3-1.8-4.1-4.1-4.1s-4.1,1.8-4.1,4.1c0,0.2,0,0.5,0.1,0.7h8.1C28.4,24.5,28.4,24.3,28.4,24.1z"/>
		<path d="M24.3,1.7l-22.5,7v21c0,0,1.9,7.9,6.1,14.4c3.8,5.9,16.5,10.4,16.5,10.4s12.2-4.3,16-9.5c4.6-6.5,6.6-14.2,6.6-14.2V8.8
			L24.3,1.7z M34.5,39.5H14.2V24.8h2.9c0-0.2,0-0.5,0-0.7c0-4,3.2-7.2,7.2-7.2s7.2,3.2,7.2,7.2c0,0.2,0,0.5,0,0.7h2.9V39.5z"/>
	</g>
	<path d="M27.1,34.2h-1.9v-1.9c1-0.4,1.7-1.4,1.7-2.5c0-1.5-1.2-2.7-2.7-2.7c-1.5,0-2.7,1.2-2.7,2.7c0,1.1,0.7,2.1,1.7,2.5v5h1.9
		v-1.2h1.9V34.2z"/>
</g>
<g>
	<path d="M79.6,29.9H65.4v-4.6l8-8.7c0.4-0.4,0.7-0.8,0.9-1.2s0.3-0.7,0.3-1.2c0-0.6-0.2-1.1-0.5-1.5c-0.3-0.4-0.8-0.6-1.5-0.6
		c-0.6,0-1.1,0.2-1.5,0.5c-0.4,0.3-0.6,0.9-0.6,1.7h-5.1c0-1.4,0.3-2.6,1-3.6c0.6-1,1.5-1.8,2.6-2.3c1.1-0.5,2.3-0.8,3.6-0.8
		c1.4,0,2.6,0.3,3.7,0.8s1.9,1.3,2.5,2.3c0.6,1,0.9,2.2,0.9,3.5c0,1.1-0.2,2-0.6,2.7s-1.1,1.6-2.1,2.7l-5.3,5.6h8V29.9z"/>
	<path d="M93.5,23.1H83.3v-4.8h10.2V23.1z"/>
	<path d="M113.1,12.6h-9.6v3.9h8.2v4.8h-8.2v8.6h-5.4V7.8h15V12.6z"/>
	<path d="M135.4,29.9h-5.7l-1-3.3h-6.8l-1.1,3.3h-5.7l8-22.1h4.2L135.4,29.9z M127.3,22l-1.9-5.9l-2,5.9H127.3z"/>
	<path d="M154.5,22.8c-0.2,1.2-0.5,2.2-1,3.1c-0.5,0.9-1.1,1.7-1.9,2.3c-0.7,0.6-1.6,1-2.5,1.3c-0.9,0.3-1.9,0.4-3,0.4
		c-2.5,0-4.5-0.8-6.1-2.5c-1-1-1.6-2.1-1.8-3.3c-0.3-1.2-0.4-2.8-0.4-4.7v-0.7v-0.7c0-1.9,0.1-3.5,0.4-4.7S139,11,140,10
		c0.8-0.8,1.7-1.4,2.7-1.9c1-0.4,2.1-0.6,3.4-0.6c1.1,0,2.1,0.1,3,0.4c0.9,0.3,1.7,0.7,2.5,1.3c0.7,0.6,1.3,1.3,1.8,2.3
		c0.5,0.9,0.8,2,1,3.2H149c-0.2-0.7-0.5-1.3-0.9-1.7s-1.1-0.6-1.9-0.6c-0.5,0-0.9,0.1-1.3,0.3s-0.7,0.4-0.9,0.7
		c-0.2,0.2-0.3,0.5-0.5,0.9s-0.2,0.9-0.3,1.5c-0.1,0.7-0.1,1.7-0.1,3.1c0,1.8,0.1,3,0.2,3.8c0.1,0.7,0.3,1.3,0.6,1.7
		c0.5,0.6,1.2,0.9,2.1,0.9c0.8,0,1.4-0.2,1.9-0.6c0.4-0.4,0.8-1,0.9-1.7H154.5z"/>
	<path d="M173.1,12.6h-5.4v17.3h-5.4V12.6h-5.4V7.8h16.3V12.6z"/>
	<path d="M193.2,18.8v0.7c0,1.2,0,2.3-0.1,3.2c-0.1,0.9-0.3,1.8-0.6,2.6c-0.3,0.8-0.8,1.6-1.5,2.2c-0.8,0.8-1.7,1.4-2.7,1.9
		c-1,0.4-2.1,0.6-3.5,0.6c-0.9,0-1.7-0.1-2.4-0.3c-0.7-0.2-1.4-0.5-2-0.8s-1.2-0.8-1.7-1.4c-1-1-1.6-2.1-1.8-3.3
		c-0.3-1.2-0.4-2.8-0.4-4.7v-0.7v-0.7c0-1.9,0.1-3.5,0.4-4.7s0.9-2.3,1.8-3.3c0.8-0.8,1.7-1.5,2.7-1.9c1-0.4,2.1-0.6,3.4-0.6
		c1.3,0,2.5,0.2,3.5,0.6c1,0.4,1.9,1,2.7,1.9c0.7,0.7,1.2,1.4,1.5,2.3c0.3,0.8,0.5,1.7,0.6,2.6c0.1,0.9,0.1,2,0.1,3.2V18.8z
		 M187.8,18.8c0-1.9-0.1-3.2-0.2-3.9c-0.1-0.7-0.3-1.2-0.6-1.6c-0.2-0.3-0.5-0.5-0.9-0.7c-0.4-0.2-0.8-0.3-1.3-0.3
		c-0.5,0-0.9,0.1-1.3,0.3c-0.4,0.2-0.7,0.4-0.9,0.7c-0.2,0.2-0.3,0.5-0.4,0.9s-0.2,0.9-0.3,1.6c-0.1,0.7-0.1,1.7-0.1,3
		c0,1.3,0,2.3,0.1,3s0.1,1.2,0.3,1.6c0.1,0.3,0.3,0.6,0.4,0.9c0.5,0.7,1.2,1,2.2,1c0.9,0,1.7-0.3,2.2-1c0.3-0.4,0.5-0.9,0.6-1.6
		C187.7,22,187.8,20.7,187.8,18.8z"/>
	<path d="M215.2,29.9h-6.3l-3.9-8.2h-1.8v8.2h-5.4V7.8h8.8c1.6,0,2.9,0.3,4.1,1s2,1.5,2.6,2.6c0.6,1.1,0.9,2.3,0.9,3.5
		c0,1.4-0.4,2.6-1.1,3.6c-0.7,1-1.6,1.7-2.5,2.2L215.2,29.9z M208.6,14.9c0-0.4-0.1-0.8-0.3-1.1s-0.5-0.6-0.8-0.8
		c-0.4-0.2-0.8-0.3-1.3-0.3h-3.1v4.5h3.1c0.5,0,0.9-0.1,1.3-0.3c0.4-0.2,0.6-0.5,0.8-0.8C208.5,15.6,208.6,15.3,208.6,14.9z"/>
</g>
<g>
	<path d="M77.7,48.6h-3.5l-0.6-2h-4.2l-0.7,2h-3.5l4.9-13.5h2.6L77.7,48.6z M72.8,43.8l-1.1-3.6l-1.2,3.6H72.8z"/>
	<path d="M89.6,43.9c0,0.7-0.1,1.4-0.4,2c-0.3,0.6-0.6,1.1-1.1,1.6s-1,0.8-1.6,1c-0.6,0.2-1.3,0.3-2,0.3c-0.9,0-1.8-0.2-2.6-0.6
		s-1.4-1-1.9-1.7c-0.5-0.7-0.7-1.6-0.7-2.5v-8.7h3.3v8.7c0,0.6,0.2,1.1,0.5,1.4c0.3,0.3,0.8,0.5,1.3,0.5c0.4,0,0.7-0.1,1-0.2
		s0.5-0.4,0.6-0.7c0.1-0.3,0.2-0.7,0.2-1.1v-8.7h3.3V43.9z"/>
	<path d="M101.7,38.1h-3.3v10.5H95V38.1h-3.3v-3h10V38.1z"/>
	<path d="M114.2,48.6h-3.3v-5.3h-3.5v5.3h-3.3V35.1h3.3v5.2h3.5v-5.2h3.3V48.6z"/>
	<path d="M128,48.6h-2.9l-4.3-6.8v6.8h-3.3V35.1h2.9l4.3,6.8v-6.8h3.3V48.6z"/>
	<path d="M140.3,38.1H137v10.5h-3.3V38.1h-3.3v-3h10V38.1z"/>
	<path d="M146,48.6h-3.3V35.1h3.3V48.6z"/>
	<path d="M159,44.3c-0.1,0.7-0.3,1.4-0.6,1.9s-0.7,1-1.1,1.4c-0.5,0.4-1,0.6-1.5,0.8c-0.6,0.2-1.2,0.3-1.8,0.3
		c-1.5,0-2.7-0.5-3.7-1.5c-0.6-0.6-1-1.3-1.1-2s-0.2-1.7-0.2-2.9v-0.5v-0.5c0-1.2,0.1-2.1,0.2-2.9c0.2-0.8,0.5-1.4,1.1-2
		c0.5-0.5,1.1-0.9,1.7-1.1c0.6-0.2,1.3-0.4,2.1-0.4c0.7,0,1.3,0.1,1.8,0.3c0.6,0.2,1.1,0.5,1.5,0.8c0.4,0.4,0.8,0.8,1.1,1.4
		c0.3,0.6,0.5,1.2,0.6,1.9h-3.4c-0.1-0.4-0.3-0.8-0.6-1c-0.3-0.3-0.6-0.4-1.2-0.4c-0.3,0-0.5,0.1-0.8,0.2c-0.2,0.1-0.4,0.2-0.5,0.4
		c-0.1,0.1-0.2,0.3-0.3,0.5c-0.1,0.2-0.1,0.5-0.2,0.9s-0.1,1-0.1,1.9c0,1.1,0,1.9,0.1,2.3c0.1,0.4,0.2,0.8,0.4,1
		c0.3,0.4,0.7,0.6,1.3,0.6c0.5,0,0.9-0.1,1.2-0.4c0.3-0.3,0.5-0.6,0.6-1H159z"/>
	<path d="M172.2,48.6h-3.5l-0.6-2H164l-0.7,2h-3.5l4.9-13.5h2.6L172.2,48.6z M167.3,43.8l-1.1-3.6l-1.2,3.6H167.3z"/>
	<path d="M183.2,38.1h-3.3v10.5h-3.3V38.1h-3.3v-3h10V38.1z"/>
	<path d="M188.9,48.6h-3.3V35.1h3.3V48.6z"/>
	<path d="M202,41.9v0.5c0,0.8,0,1.4-0.1,1.9c-0.1,0.5-0.2,1.1-0.4,1.6c-0.2,0.5-0.5,1-0.9,1.4c-0.5,0.5-1,0.9-1.6,1.1
		s-1.3,0.4-2.1,0.4c-0.5,0-1-0.1-1.5-0.2s-0.8-0.3-1.2-0.5s-0.7-0.5-1.1-0.8c-0.6-0.6-1-1.3-1.1-2s-0.2-1.7-0.2-2.9v-0.5v-0.5
		c0-1.2,0.1-2.1,0.2-2.9c0.2-0.8,0.5-1.4,1.1-2c0.5-0.5,1.1-0.9,1.7-1.1c0.6-0.2,1.3-0.4,2.1-0.4c0.8,0,1.5,0.1,2.1,0.4
		c0.6,0.3,1.1,0.6,1.7,1.1c0.4,0.4,0.7,0.9,0.9,1.4s0.3,1,0.4,1.6c0.1,0.5,0.1,1.2,0.1,1.9V41.9z M198.7,41.9c0-1.1,0-1.9-0.1-2.3
		c-0.1-0.4-0.2-0.7-0.4-1c-0.1-0.2-0.3-0.3-0.5-0.4c-0.2-0.1-0.5-0.2-0.8-0.2c-0.3,0-0.5,0.1-0.8,0.2c-0.2,0.1-0.4,0.3-0.6,0.4
		c-0.1,0.1-0.2,0.3-0.3,0.5c-0.1,0.2-0.1,0.5-0.2,1c0,0.4-0.1,1-0.1,1.8c0,0.8,0,1.4,0.1,1.8c0,0.4,0.1,0.7,0.2,0.9
		c0.1,0.2,0.2,0.4,0.3,0.5c0.3,0.4,0.8,0.6,1.3,0.6c0.6,0,1-0.2,1.3-0.6c0.2-0.2,0.3-0.6,0.4-1C198.6,43.8,198.7,43,198.7,41.9z"/>
	<path d="M215.3,48.6h-2.9l-4.3-6.8v6.8h-3.3V35.1h2.9l4.3,6.8v-6.8h3.3V48.6z"/>
</g>
</svg>
