<?xml version="1.0" encoding="utf-8"?>
<!-- Generator: Adobe Illustrator 22.0.0, SVG Export Plug-In . SVG Version: 6.00 Build 0)  -->
<svg version="1.1" id="レイヤー_1" xmlns="http://www.w3.org/2000/svg" xmlns:xlink="http://www.w3.org/1999/xlink" x="0px"
	 y="0px" viewBox="0 0 132 25.4" style="enable-background:new 0 0 132 25.4;" xml:space="preserve">
<style type="text/css">
	.st0{fill:#212121;}
</style>
<g>
	<g>
		<polygon class="st0" points="52.9,5.8 52.9,0.8 50,0.8 50,5.8 45.1,5.8 45.1,8.6 50,8.6 50,19.2 52.9,19.2 52.9,8.6 57.8,8.6 
			57.8,5.8 		"/>
		<g>
			
				<rect x="80.7" y="20.9" transform="matrix(0.7071 -0.7071 0.7071 0.7071 8.2599 64.5693)" class="st0" width="2.8" height="2.8"/>
			<path class="st0" d="M78.9,17.2L78.9,17.2l0-11.4H65.5v13.4h11.4l0,0l2.7,2.7l2-2L78.9,17.2z M68.3,16.3V8.6h7.8v7.8H68.3z"/>
		</g>
		<g>
			
				<rect x="123" y="20.8" transform="matrix(0.7071 -0.7071 0.7071 0.7071 20.7124 94.4882)" class="st0" width="2.8" height="2.8"/>
			<path class="st0" d="M121.3,17.1L121.3,17.1l0-11.4h-13.4v13.4h11.4l0,0l2.7,2.7l2-2L121.3,17.1z M110.7,16.3V8.5h7.8v7.8H110.7z
				"/>
		</g>
		<path class="st0" d="M89.5,5.7v-5h-2.8v7.8v10.6h13.4V5.7H89.5z M97.3,16.3h-7.8V8.5h7.8V16.3z"/>
	</g>
	<g>
		<path class="st0" d="M129.7,23.3h-0.3v1h-0.2v-1h-0.3v-0.2h0.8V23.3z"/>
		<path class="st0" d="M131,24.3h-0.2v-0.7l-0.2,0.4h-0.2l-0.2-0.4v0.7h-0.2v-1.2h0.2l0.3,0.6l0.3-0.6h0.2V24.3z"/>
	</g>
</g>
<g>
	<path d="M4.7,15.7c0,0.3-0.1,0.6-0.2,0.9c-0.1,0.3-0.4,0.5-0.6,0.6S3.3,17.3,3,17.3H1.7v2.2H0.9V14H3c0.3,0,0.5,0,0.7,0.1
		c0.2,0.1,0.4,0.2,0.6,0.4c0.2,0.2,0.3,0.3,0.4,0.5S4.7,15.4,4.7,15.7z M3.9,15.7c0-0.3-0.1-0.5-0.3-0.7c-0.2-0.2-0.4-0.2-0.7-0.2
		H1.7v1.8h1.2c0.3,0,0.5-0.1,0.7-0.2S3.9,15.9,3.9,15.7z"/>
	<path d="M8.5,17.5c0,0.4,0,0.7-0.1,0.9c-0.1,0.2-0.2,0.5-0.4,0.6c-0.3,0.3-0.7,0.5-1.2,0.5c-0.5,0-0.9-0.2-1.2-0.5
		c-0.2-0.2-0.3-0.4-0.4-0.6c-0.1-0.2-0.1-0.5-0.1-0.9c0-0.4,0-0.7,0.1-0.9c0.1-0.2,0.2-0.5,0.4-0.6c0.1-0.1,0.2-0.2,0.3-0.2
		c0.1-0.1,0.2-0.1,0.4-0.2c0.1,0,0.3-0.1,0.5-0.1c0.3,0,0.5,0,0.7,0.1c0.2,0.1,0.4,0.2,0.5,0.3c0.2,0.2,0.3,0.4,0.4,0.6
		C8.5,16.9,8.5,17.2,8.5,17.5z M7.8,17.5c0-0.3,0-0.5-0.1-0.6s-0.1-0.3-0.2-0.4c-0.1-0.1-0.3-0.2-0.6-0.2c-0.2,0-0.4,0.1-0.6,0.2
		c-0.1,0.1-0.2,0.3-0.2,0.4c0,0.2-0.1,0.4-0.1,0.6c0,0.3,0,0.5,0.1,0.6c0,0.2,0.1,0.3,0.2,0.4c0.2,0.2,0.3,0.2,0.6,0.2
		c0.2,0,0.4-0.1,0.6-0.2c0.1-0.1,0.2-0.3,0.2-0.4S7.8,17.8,7.8,17.5z"/>
	<path d="M14.5,15.6l-1.2,3.9h-0.7l-0.9-2.7l-0.9,2.7h-0.7l-1.2-3.9h0.8l0.8,2.8l0.9-2.8H12l0.9,2.8l0.8-2.8H14.5z"/>
	<path d="M18.1,17.8h-2.5c0,0.2,0,0.4,0.1,0.6s0.2,0.3,0.3,0.4c0.1,0.1,0.3,0.1,0.5,0.1c0.2,0,0.4,0,0.5-0.1
		c0.1-0.1,0.3-0.2,0.4-0.3l0.5,0.5c-0.2,0.2-0.4,0.4-0.7,0.5c-0.2,0.1-0.5,0.1-0.8,0.1c-0.3,0-0.5,0-0.7-0.1
		c-0.2-0.1-0.4-0.2-0.6-0.3c-0.2-0.2-0.3-0.4-0.4-0.6c-0.1-0.3-0.1-0.6-0.1-0.9c0-0.4,0.1-0.8,0.2-1.1c0.1-0.3,0.3-0.5,0.6-0.7
		c0.2-0.2,0.5-0.2,0.9-0.2c0.3,0,0.6,0.1,0.9,0.2c0.3,0.2,0.4,0.4,0.6,0.7c0.1,0.3,0.2,0.6,0.2,1V17.8z M17.3,17.2
		c0-0.2,0-0.4-0.1-0.5s-0.2-0.3-0.3-0.4c-0.1-0.1-0.3-0.1-0.5-0.1c-0.2,0-0.3,0-0.5,0.1c-0.1,0.1-0.2,0.2-0.3,0.4
		c0,0.1-0.1,0.2-0.1,0.2c0,0.1,0,0.2,0,0.3H17.3z"/>
	<path d="M21.7,15.9l-0.6,0.6c-0.1-0.1-0.2-0.2-0.3-0.2c-0.1,0-0.2-0.1-0.3-0.1c-0.1,0-0.3,0-0.4,0.1c-0.1,0.1-0.2,0.2-0.3,0.3
		c-0.1,0.1-0.1,0.3-0.1,0.5v2.4H19v-3.9h0.8V16c0.1-0.1,0.2-0.3,0.4-0.3c0.2-0.1,0.4-0.1,0.6-0.1c0.2,0,0.4,0,0.5,0.1
		C21.4,15.7,21.6,15.8,21.7,15.9z"/>
	<path d="M25.3,17.8h-2.5c0,0.2,0,0.4,0.1,0.6s0.2,0.3,0.3,0.4c0.1,0.1,0.3,0.1,0.5,0.1c0.2,0,0.4,0,0.5-0.1
		c0.1-0.1,0.3-0.2,0.4-0.3l0.5,0.5c-0.2,0.2-0.4,0.4-0.7,0.5c-0.2,0.1-0.5,0.1-0.8,0.1c-0.3,0-0.5,0-0.7-0.1
		c-0.2-0.1-0.4-0.2-0.6-0.3c-0.2-0.2-0.3-0.4-0.4-0.6C22,18.2,22,17.9,22,17.5c0-0.4,0.1-0.8,0.2-1.1c0.1-0.3,0.3-0.5,0.6-0.7
		c0.2-0.2,0.5-0.2,0.9-0.2c0.3,0,0.6,0.1,0.9,0.2c0.3,0.2,0.4,0.4,0.6,0.7c0.1,0.3,0.2,0.6,0.2,1V17.8z M24.5,17.2
		c0-0.2,0-0.4-0.1-0.5s-0.2-0.3-0.3-0.4c-0.1-0.1-0.3-0.1-0.5-0.1c-0.2,0-0.3,0-0.5,0.1c-0.1,0.1-0.2,0.2-0.3,0.4
		c0,0.1-0.1,0.2-0.1,0.2c0,0.1,0,0.2,0,0.3H24.5z"/>
	<path d="M29.2,19.5h-0.8v-0.4c-0.1,0.1-0.2,0.2-0.3,0.3c-0.1,0.1-0.2,0.1-0.3,0.1c-0.1,0-0.3,0-0.4,0c-0.2,0-0.4,0-0.5-0.1
		c-0.2-0.1-0.3-0.1-0.4-0.3c-0.1-0.1-0.2-0.3-0.3-0.5C26,18.6,26,18.4,26,18.2c0-0.2,0-0.4,0-0.7c0-0.2,0-0.5,0-0.7s0.1-0.4,0.1-0.5
		c0.1-0.2,0.2-0.3,0.3-0.4c0.1-0.1,0.2-0.2,0.4-0.3c0.2-0.1,0.3-0.1,0.5-0.1c0.2,0,0.4,0,0.6,0.1c0.2,0.1,0.3,0.2,0.5,0.3v-2h0.8
		V19.5z M28.4,17.5c0-0.3,0-0.5-0.1-0.7c0-0.2-0.1-0.3-0.2-0.4c-0.1-0.1-0.3-0.2-0.5-0.2c-0.2,0-0.4,0.1-0.5,0.2
		c-0.1,0.1-0.2,0.3-0.2,0.4c0,0.2-0.1,0.4-0.1,0.7s0,0.5,0.1,0.7c0,0.2,0.1,0.3,0.2,0.5c0.1,0.1,0.3,0.2,0.5,0.2
		c0.3,0,0.5-0.1,0.6-0.3C28.3,18.3,28.4,17.9,28.4,17.5z"/>
	<path d="M35.1,17.5c0,0.2,0,0.5,0,0.7c0,0.2-0.1,0.4-0.1,0.6s-0.2,0.3-0.3,0.5c-0.1,0.1-0.2,0.2-0.4,0.3c-0.2,0.1-0.4,0.1-0.5,0.1
		c-0.2,0-0.4,0-0.6-0.1c-0.2-0.1-0.3-0.2-0.5-0.4v0.4h-0.8V14h0.8v2c0.1-0.2,0.3-0.3,0.5-0.3c0.2-0.1,0.4-0.1,0.6-0.1
		c0.2,0,0.4,0,0.5,0.1c0.2,0.1,0.3,0.1,0.4,0.3c0.1,0.1,0.2,0.3,0.3,0.4c0.1,0.2,0.1,0.4,0.1,0.6S35.1,17.3,35.1,17.5z M34.3,17.5
		c0-0.3,0-0.5-0.1-0.7c0-0.2-0.1-0.3-0.2-0.4c-0.1-0.1-0.3-0.2-0.5-0.2c-0.2,0-0.4,0.1-0.5,0.2c-0.1,0.1-0.2,0.3-0.2,0.4
		c0,0.2-0.1,0.4-0.1,0.7s0,0.5,0.1,0.7c0,0.2,0.1,0.3,0.2,0.5c0.1,0.1,0.3,0.2,0.5,0.2c0.3,0,0.5-0.1,0.6-0.3
		C34.3,18.3,34.3,17.9,34.3,17.5z"/>
	<path d="M38.9,15.6l-1.7,4.7c-0.1,0.2-0.2,0.4-0.3,0.5c-0.2,0.2-0.5,0.3-0.8,0.3h-0.3v-0.7H36c0.2,0,0.3,0,0.4-0.1
		c0.1-0.1,0.1-0.2,0.2-0.3l0.2-0.6l-1.4-3.7h0.8l0.9,2.8l0.9-2.8H38.9z"/>
</g>
</svg>
